<svg xmlns="http://www.w3.org/2000/svg" viewBox="0 0 1200 600">
  <!-- White background -->
  <rect width="1200" height="600" fill="#ffffff"/>
  
  <!-- Subtle grid pattern -->
  <defs>
    <pattern id="subtleGrid" width="50" height="50" patternUnits="userSpaceOnUse">
      <path d="M 50 0 L 0 0 0 50" stroke="#f0f0f0" stroke-width="1" fill="none"/>
    </pattern>
  </defs>
  <rect width="1200" height="600" fill="url(#subtleGrid)"/>
  
  <!-- Digital elements overlaid on white -->
  <g opacity="0.7">
    <!-- Abstract network connections -->
    <path d="M 50 150 C 200 100, 400 200, 650 150" stroke="#e6f7ff" stroke-width="5" fill="none"/>
    <path d="M 750 50 C 850 150, 950 100, 1150 200" stroke="#e6f7ff" stroke-width="5" fill="none"/>
    <path d="M 100 350 C 300 450, 500 350, 700 400" stroke="#e6f7ff" stroke-width="5" fill="none"/>
    <path d="M 800 450 C 900 350, 1000 400, 1150 350" stroke="#e6f7ff" stroke-width="5" fill="none"/>
    
    <!-- Data nodes -->
    <circle cx="50" cy="150" r="8" fill="#0099cc" opacity="0.7"/>
    <circle cx="650" cy="150" r="8" fill="#0099cc" opacity="0.7"/>
    <circle cx="750" cy="50" r="8" fill="#0099cc" opacity="0.7"/>
    <circle cx="1150" cy="200" r="8" fill="#0099cc" opacity="0.7"/>
    <circle cx="100" cy="350" r="8" fill="#0099cc" opacity="0.7"/>
    <circle cx="700" cy="400" r="8" fill="#0099cc" opacity="0.7"/>
    <circle cx="800" cy="450" r="8" fill="#0099cc" opacity="0.7"/>
    <circle cx="1150" cy="350" r="8" fill="#0099cc" opacity="0.7"/>
    
    <!-- Abstract circuit lines -->
    <path d="M 0 100 L 300 100" stroke="#e6f7ff" stroke-width="3" fill="none"/>
    <path d="M 300 100 L 300 300" stroke="#e6f7ff" stroke-width="3" fill="none"/>
    <path d="M 300 300 L 700 300" stroke="#e6f7ff" stroke-width="3" fill="none"/>
    <path d="M 700 300 L 700 500" stroke="#e6f7ff" stroke-width="3" fill="none"/>
    <path d="M 700 500 L 1200 500" stroke="#e6f7ff" stroke-width="3" fill="none"/>
    
    <!-- Digital accents -->
    <circle cx="300" cy="100" r="6" fill="#0066cc" opacity="0.8"/>
    <circle cx="300" cy="300" r="6" fill="#0066cc" opacity="0.8"/>
    <circle cx="700" cy="300" r="6" fill="#0066cc" opacity="0.8"/>
    <circle cx="700" cy="500" r="6" fill="#0066cc" opacity="0.8"/>
  </g>
  
  <!-- Accent diagonal lines -->
  <g opacity="0.3">
    <line x1="0" y1="0" x2="200" y2="200" stroke="#00ccff" stroke-width="1"/>
    <line x1="1000" y1="0" x2="1200" y2="200" stroke="#00ccff" stroke-width="1"/>
    <line x1="0" y1="400" x2="200" y2="600" stroke="#00ccff" stroke-width="1"/>
    <line x1="1000" y1="400" x2="1200" y2="600" stroke="#00ccff" stroke-width="1"/>
  </g>
  
  <!-- Subtle cyan accent shapes -->
  <rect x="0" y="0" width="15" height="600" fill="#00ccff" opacity="0.1"/>
  <rect x="1185" y="0" width="15" height="600" fill="#00ccff" opacity="0.1"/>
  
  <!-- Light blue accent corner -->
  <path d="M 0 0 L 200 0 L 0 200 Z" fill="#e6f7ff"/>
  <path d="M 1200 600 L 1000 600 L 1200 400 Z" fill="#e6f7ff"/>
</svg>